<svg width="320" height="65" viewBox="0 0 320 65" fill="none" xmlns="http://www.w3.org/2000/svg">
<path d="M1.03939 4.10715C0.303893 6.07727 0.395829 45.3005 1.22326 46.0169C1.49907 46.3751 6.3717 42.1662 11.9798 36.7036L22.0928 26.853L28.0687 32.6738C31.2865 35.8976 34.4123 38.4946 34.964 38.4946C36.5269 38.4946 53.6271 21.3009 53.1674 20.1367C52.8916 19.4203 54.4545 18.6144 57.4884 17.8084L62.1772 16.6442L61.6256 3.12209L31.6542 2.85344C4.25716 2.67434 1.591 2.76389 1.03939 4.10715Z" fill="#D2E4D5"/>
<path d="M60.6861 26.1038C60.4065 27.3544 59.4746 28.337 58.5427 28.337C57.7039 28.337 52.2056 32.9821 46.3344 38.6098C40.4633 44.2375 35.2445 48.8826 34.6853 48.8826C34.2194 48.8826 31.0508 46.292 27.6959 43.1655L21.6384 37.3592L12.4123 45.8454C7.37988 50.4905 2.81344 54.2422 2.44067 54.2422C1.97471 54.2422 1.60194 53.6169 1.60194 52.813C1.60194 52.0984 1.22916 51.6517 0.763201 52.009C0.204045 52.277 -0.0755326 55.2249 0.01766 58.53L0.204045 64.515L31.2372 64.783L62.1772 64.9616V44.4161C62.1772 33.1608 61.9908 23.8706 61.7112 23.8706C61.5248 23.8706 61.0589 24.8532 60.6861 26.1038Z" fill="#D2E4D5"/>
<path d="M82.4848 58.4736V53.5913L92.1358 51.3205V10.8999H82.4848V6.01767L100.651 1.70312H105.647V8.74265C111.778 2.91422 118.894 0 126.993 0C127.447 1.43819 127.674 3.02776 127.674 4.76872C127.674 7.5694 127.333 10.0673 126.652 12.2624L112.233 11.0135C109.962 12.0732 107.767 13.36 105.647 14.8739V51.3205L117.569 53.5913V58.4736H82.4848Z" fill="#D2E4D5"/>
<path d="M133.505 29.4071C133.505 21.0808 135.89 14.1169 140.659 8.51557C145.427 2.83852 152.013 0 160.415 0C164.805 0 168.627 0.832634 171.882 2.4979C175.213 4.08748 177.824 6.32045 179.717 9.19682C181.685 12.0732 183.123 15.2902 184.031 18.8478C184.939 22.4054 185.394 26.2658 185.394 30.429H147.017C147.547 36.6359 149.628 41.9345 153.262 46.3247C156.895 50.6393 161.853 52.7965 168.135 52.7965C172.147 52.7965 176.5 51.9261 181.193 50.1851L183.123 55.5215C176.083 58.625 169.384 60.1767 163.026 60.1767C153.867 60.1767 146.638 57.1868 141.34 51.207C136.117 45.2271 133.505 37.9605 133.505 29.4071ZM147.017 24.8655L171.315 23.0488C171.088 18.5072 170.028 14.5711 168.135 11.2406C166.243 7.91002 163.556 6.24476 160.074 6.24476C156.289 6.24476 153.186 8.02356 150.764 11.5812C148.417 15.1388 147.168 19.5669 147.017 24.8655Z" fill="#D2E4D5"/>
<path d="M190.004 6.58538V1.70312H221.795V6.58538L214.756 7.94787L225.883 22.4811L237.123 8.51557L229.289 6.58538V1.70312H254.381V6.58538L245.071 8.8562L229.629 27.3634L248.25 51.434L257.788 53.5913V58.4736H225.996V53.5913L233.263 52.4559L219.978 35.4248L206.354 51.7747L213.734 53.5913V58.4736H189.209V53.5913L198.406 51.5476L216.118 30.429L199.314 8.74265L190.004 6.58538Z" fill="#D2E4D5"/>
<path d="M262.662 44.3945C262.662 31.2995 274.281 24.7519 297.519 24.7519V20.778C297.519 14.1926 296.573 10.0295 294.68 8.28849C292.864 6.47184 289.987 5.56351 286.051 5.56351L272.767 16.9176C270.95 15.7822 269.399 14.1926 268.112 12.1489C266.901 10.0295 266.257 7.79648 266.182 5.44997C269.361 3.70901 272.843 2.38436 276.627 1.47603C280.412 0.492011 284.159 0 287.868 0C303.385 0 311.144 6.50968 311.144 19.529V51.0934H320V54.8403C318.259 56.5055 316.329 57.7923 314.209 58.7007C312.09 59.6847 310.008 60.1767 307.965 60.1767C303.499 60.1767 300.206 58.2465 298.087 54.3861C293.015 58.2465 287.3 60.1767 280.942 60.1767C275.946 60.1767 271.632 58.8521 267.998 56.2028C264.441 53.5535 262.662 49.6174 262.662 44.3945ZM276.968 43.9403C276.968 46.741 277.876 48.8226 279.693 50.1851C281.585 51.5476 283.97 52.2288 286.846 52.2288C291.009 52.2288 294.567 50.942 297.519 48.3684V30.5425C290.706 30.5425 285.559 31.7915 282.077 34.2894C278.671 36.7116 276.968 39.9286 276.968 43.9403Z" fill="#D2E4D5"/>
<path d="M1.03939 4.10715C0.303893 6.07727 0.395829 45.3005 1.22326 46.0169C1.49907 46.3751 6.3717 42.1662 11.9798 36.7036L22.0928 26.853L28.0687 32.6738C31.2865 35.8976 34.4123 38.4946 34.964 38.4946C36.5269 38.4946 53.6271 21.3009 53.1674 20.1367C52.8916 19.4203 54.4545 18.6144 57.4884 17.8084L62.1772 16.6442L61.6256 3.12209L31.6542 2.85344C4.25716 2.67434 1.591 2.76389 1.03939 4.10715Z" stroke="black"/>
<path d="M60.6861 26.1038C60.4065 27.3544 59.4746 28.337 58.5427 28.337C57.7039 28.337 52.2056 32.9821 46.3344 38.6098C40.4633 44.2375 35.2445 48.8826 34.6853 48.8826C34.2194 48.8826 31.0508 46.292 27.6959 43.1655L21.6384 37.3592L12.4123 45.8454C7.37988 50.4905 2.81344 54.2422 2.44067 54.2422C1.97471 54.2422 1.60194 53.6169 1.60194 52.813C1.60194 52.0984 1.22916 51.6517 0.763201 52.009C0.204045 52.277 -0.0755326 55.2249 0.01766 58.53L0.204045 64.515L31.2372 64.783L62.1772 64.9616V44.4161C62.1772 33.1608 61.9908 23.8706 61.7112 23.8706C61.5248 23.8706 61.0589 24.8532 60.6861 26.1038Z" stroke="black"/>
<path d="M82.4848 58.4736V53.5913L92.1358 51.3205V10.8999H82.4848V6.01767L100.651 1.70312H105.647V8.74265C111.778 2.91422 118.894 0 126.993 0C127.447 1.43819 127.674 3.02776 127.674 4.76872C127.674 7.5694 127.333 10.0673 126.652 12.2624L112.233 11.0135C109.962 12.0732 107.767 13.36 105.647 14.8739V51.3205L117.569 53.5913V58.4736H82.4848Z" stroke="black"/>
<path d="M133.505 29.4071C133.505 21.0808 135.89 14.1169 140.659 8.51557C145.427 2.83852 152.013 0 160.415 0C164.805 0 168.627 0.832634 171.882 2.4979C175.213 4.08748 177.824 6.32045 179.717 9.19682C181.685 12.0732 183.123 15.2902 184.031 18.8478C184.939 22.4054 185.394 26.2658 185.394 30.429H147.017C147.547 36.6359 149.628 41.9345 153.262 46.3247C156.895 50.6393 161.853 52.7965 168.135 52.7965C172.147 52.7965 176.5 51.9261 181.193 50.1851L183.123 55.5215C176.083 58.625 169.384 60.1767 163.026 60.1767C153.867 60.1767 146.638 57.1868 141.34 51.207C136.117 45.2271 133.505 37.9605 133.505 29.4071ZM147.017 24.8655L171.315 23.0488C171.088 18.5072 170.028 14.5711 168.135 11.2406C166.243 7.91002 163.556 6.24476 160.074 6.24476C156.289 6.24476 153.186 8.02356 150.764 11.5812C148.417 15.1388 147.168 19.5669 147.017 24.8655Z" stroke="black"/>
<path d="M190.004 6.58538V1.70312H221.795V6.58538L214.756 7.94787L225.883 22.4811L237.123 8.51557L229.289 6.58538V1.70312H254.381V6.58538L245.071 8.8562L229.629 27.3634L248.25 51.434L257.788 53.5913V58.4736H225.996V53.5913L233.263 52.4559L219.978 35.4248L206.354 51.7747L213.734 53.5913V58.4736H189.209V53.5913L198.406 51.5476L216.118 30.429L199.314 8.74265L190.004 6.58538Z" stroke="black"/>
<path d="M262.662 44.3945C262.662 31.2995 274.281 24.7519 297.519 24.7519V20.778C297.519 14.1926 296.573 10.0295 294.68 8.28849C292.864 6.47184 289.987 5.56351 286.051 5.56351L272.767 16.9176C270.95 15.7822 269.399 14.1926 268.112 12.1489C266.901 10.0295 266.257 7.79648 266.182 5.44997C269.361 3.70901 272.843 2.38436 276.627 1.47603C280.412 0.492011 284.159 0 287.868 0C303.385 0 311.144 6.50968 311.144 19.529V51.0934H320V54.8403C318.259 56.5055 316.329 57.7923 314.209 58.7007C312.09 59.6847 310.008 60.1767 307.965 60.1767C303.499 60.1767 300.206 58.2465 298.087 54.3861C293.015 58.2465 287.3 60.1767 280.942 60.1767C275.946 60.1767 271.632 58.8521 267.998 56.2028C264.441 53.5535 262.662 49.6174 262.662 44.3945ZM276.968 43.9403C276.968 46.741 277.876 48.8226 279.693 50.1851C281.585 51.5476 283.97 52.2288 286.846 52.2288C291.009 52.2288 294.567 50.942 297.519 48.3684V30.5425C290.706 30.5425 285.559 31.7915 282.077 34.2894C278.671 36.7116 276.968 39.9286 276.968 43.9403Z" stroke="black"/>
</svg>
