<svg width="131" height="18" viewBox="0 0 131 18" fill="none" xmlns="http://www.w3.org/2000/svg">
<path d="M3.61519 8.13501C3.76658 8.1552 3.91797 8.17034 4.06936 8.18043C4.22074 8.19052 4.36708 8.19557 4.50838 8.19557C4.85153 8.19557 5.16944 8.14511 5.46212 8.04418C5.7649 7.94325 6.02226 7.79187 6.2342 7.59002C6.45624 7.38817 6.62781 7.1409 6.74892 6.84822C6.87003 6.55553 6.93059 6.21239 6.93059 5.81878C6.93059 5.03156 6.69341 4.44115 6.21906 4.04754C5.75481 3.65393 5.14421 3.45713 4.38727 3.45713H3.61519V8.13501ZM0.360352 13.1005V12.4042L1.75312 12.0711V3.53282L0.360352 3.19977V2.50338H4.38727C7.35447 2.50338 8.83808 3.60851 8.83808 5.81878C8.83808 6.93905 8.44951 7.77673 7.67239 8.33182C6.90536 8.87681 5.89106 9.14931 4.62949 9.14931C4.27625 9.14931 3.93815 9.12408 3.61519 9.07362V12.0711L5.46212 12.4042V13.1005H0.360352Z" fill="#D2E4D5"/>
<path d="M13.6079 5.30406C14.718 5.30406 15.6365 5.68253 16.3631 6.43947C17.0898 7.18632 17.4531 8.14006 17.4531 9.3007C17.4531 10.4714 17.0898 11.4353 16.3631 12.1922C15.6365 12.9492 14.718 13.3276 13.6079 13.3276C12.4977 13.3276 11.5742 12.9492 10.8375 12.1922C10.1108 11.4353 9.74747 10.4714 9.74747 9.3007C9.74747 8.14006 10.1108 7.18632 10.8375 6.43947C11.5742 5.68253 12.4977 5.30406 13.6079 5.30406ZM13.6079 6.13669C12.9821 6.13669 12.4977 6.42433 12.1545 6.9996C11.8215 7.57488 11.655 8.34191 11.655 9.3007C11.655 10.2595 11.8215 11.0316 12.1545 11.6169C12.4977 12.2023 12.9821 12.495 13.6079 12.495C14.2336 12.495 14.713 12.2023 15.046 11.6169C15.3892 11.0215 15.5608 10.2494 15.5608 9.3007C15.5608 8.34191 15.3892 7.57488 15.046 6.9996C14.713 6.42433 14.2336 6.13669 13.6079 6.13669Z" fill="#D2E4D5"/>
<path d="M17.9683 6.18211V5.53114H21.8741V6.18211L20.8598 6.43947L22.3434 10.5724L24.0541 5.53114H25.129L26.8851 10.4967L28.2627 6.48488L27.0213 6.18211V5.53114H30.3064V6.18211L29.1407 6.48488L26.9002 13.2065H25.9313L24.0995 8.05932L22.3586 13.2065H21.4048L18.922 6.45461L17.9683 6.18211Z" fill="#D2E4D5"/>
<path d="M30.7851 9.22501C30.7851 8.11483 31.103 7.18632 31.7388 6.43947C32.3746 5.68253 33.2527 5.30406 34.373 5.30406C34.9583 5.30406 35.468 5.41508 35.902 5.63711C36.346 5.84905 36.6942 6.14678 36.9466 6.5303C37.209 6.91382 37.4007 7.34275 37.5218 7.8171C37.6429 8.29145 37.7035 8.80617 37.7035 9.36126H32.5866C32.6572 10.1888 32.9348 10.8953 33.4192 11.4807C33.9037 12.056 34.5647 12.3436 35.4024 12.3436C35.9373 12.3436 36.5176 12.2275 37.1434 11.9954L37.4007 12.7069C36.4621 13.1207 35.5689 13.3276 34.7211 13.3276C33.5 13.3276 32.5361 12.929 31.8296 12.1317C31.1333 11.3343 30.7851 10.3655 30.7851 9.22501ZM32.5866 8.61945L35.8263 8.37723C35.796 7.77168 35.6547 7.24687 35.4024 6.8028C35.1501 6.35873 34.7918 6.13669 34.3275 6.13669C33.8229 6.13669 33.4091 6.37387 33.0862 6.84822C32.7733 7.32256 32.6068 7.91298 32.5866 8.61945Z" fill="#D2E4D5"/>
<path d="M38.8106 13.1005V12.4496L40.0974 12.1468V6.75738H38.8106V6.10641L41.2328 5.53114H41.8989V6.46975C42.7164 5.69262 43.6651 5.30406 44.745 5.30406C44.8056 5.49582 44.8359 5.70776 44.8359 5.93989C44.8359 6.31331 44.7905 6.64636 44.6996 6.93905L42.777 6.77252C42.4742 6.91382 42.1815 7.08539 41.8989 7.28724V12.1468L43.4885 12.4496V13.1005H38.8106Z" fill="#D2E4D5"/>
<path d="M45.6134 9.22501C45.6134 8.11483 45.9313 7.18632 46.5671 6.43947C47.203 5.68253 48.081 5.30406 49.2013 5.30406C49.7867 5.30406 50.2963 5.41508 50.7303 5.63711C51.1744 5.84905 51.5226 6.14678 51.7749 6.5303C52.0373 6.91382 52.229 7.34275 52.3502 7.8171C52.4713 8.29145 52.5318 8.80617 52.5318 9.36126H47.4149C47.4856 10.1888 47.7631 10.8953 48.2475 11.4807C48.732 12.056 49.393 12.3436 50.2307 12.3436C50.7656 12.3436 51.3459 12.2275 51.9717 11.9954L52.229 12.7069C51.2904 13.1207 50.3972 13.3276 49.5495 13.3276C48.3283 13.3276 47.3644 12.929 46.658 12.1317C45.9616 11.3343 45.6134 10.3655 45.6134 9.22501ZM47.4149 8.61945L50.6546 8.37723C50.6243 7.77168 50.483 7.24687 50.2307 6.8028C49.9784 6.35873 49.6201 6.13669 49.1559 6.13669C48.6512 6.13669 48.2374 6.37387 47.9145 6.84822C47.6016 7.32256 47.4351 7.91298 47.4149 8.61945Z" fill="#D2E4D5"/>
<path d="M53.7449 9.58834C53.7449 8.22585 54.1638 7.17118 55.0014 6.42433C55.8391 5.67748 56.8534 5.30406 58.0443 5.30406C58.4682 5.30406 58.8366 5.34947 59.1495 5.44031V2.21574H57.8627V1.56478L60.2849 0.989502H60.9661V12.1165H62.147V12.6161L61.9047 12.8129C61.8038 12.8936 61.6121 12.9996 61.3295 13.1308C61.057 13.262 60.7895 13.3276 60.5271 13.3276C60.4161 13.3276 60.3051 13.3125 60.1941 13.2822C60.0931 13.262 60.0023 13.2317 59.9216 13.1914C59.8408 13.151 59.7651 13.1056 59.6945 13.0551C59.6238 12.9946 59.5633 12.9391 59.5128 12.8886C59.4724 12.8381 59.427 12.7826 59.3766 12.7221C59.3362 12.6615 59.3059 12.611 59.2857 12.5707C59.2655 12.5303 59.2403 12.4849 59.21 12.4344L59.1798 12.3739C58.5742 13.0097 57.8274 13.3276 56.9392 13.3276C56.0612 13.3276 55.3093 13.0097 54.6835 12.3739C54.0578 11.728 53.7449 10.7994 53.7449 9.58834ZM55.607 9.52778C55.607 10.3957 55.7988 11.0568 56.1823 11.511C56.5759 11.9651 57.0401 12.1922 57.575 12.1922C58.1402 12.1922 58.665 12.0055 59.1495 11.6321V6.28808C58.8366 6.18715 58.5137 6.13669 58.1806 6.13669C57.4136 6.13669 56.7929 6.42433 56.3185 6.9996C55.8442 7.57488 55.607 8.4176 55.607 9.52778Z" fill="#D2E4D5"/>
<path d="M65.7747 2.21574V1.56478L68.1969 0.989502H68.863V6.01558C69.519 5.54123 70.2356 5.30406 71.0127 5.30406C71.9513 5.30406 72.7285 5.62702 73.3441 6.27294C73.9598 6.91886 74.2676 7.83728 74.2676 9.0282C74.2676 10.3402 73.8437 11.3848 72.9959 12.1619C72.1582 12.9391 71.1238 13.3276 69.8925 13.3276C68.8731 13.3276 67.9295 13.0703 67.0615 12.5555V2.21574H65.7747ZM68.863 12.3739C69.1456 12.4445 69.4434 12.4798 69.7562 12.4798C70.5333 12.4798 71.1641 12.1922 71.6486 11.6169C72.1431 11.0316 72.3904 10.1888 72.3904 9.08876C72.3904 8.21071 72.1986 7.54965 71.8151 7.10557C71.4316 6.6615 70.937 6.43947 70.3315 6.43947C69.8975 6.43947 69.408 6.57067 68.863 6.83308V12.3739Z" fill="#D2E4D5"/>
<path d="M74.812 6.18211V5.53114H78.9449V6.18211L77.7792 6.40919L79.9289 11.2082L81.7455 6.48488L80.5344 6.18211V5.53114H83.8801V6.18211L82.6842 6.50002L78.3999 17.627C77.9457 17.627 77.6026 17.5614 77.3704 17.4302C77.1484 17.299 76.9768 17.1376 76.8557 16.9458L79.0206 13.5093L75.8414 6.46975L74.812 6.18211Z" fill="#D2E4D5"/>
<path d="M93.6451 2.2763C94.8158 2.2763 95.7999 2.45292 96.5972 2.80616V5.66739H95.9008L95.2044 3.42685C94.8108 3.33601 94.3566 3.2906 93.8419 3.2906C91.3289 3.2906 90.0724 4.79439 90.0724 7.80196C90.0724 10.8095 91.228 12.3133 93.5391 12.3133C93.8823 12.3133 94.1901 12.3032 94.4626 12.283C94.7351 12.2629 94.9824 12.2326 95.2044 12.1922L96.0825 9.80028H96.7788L96.6729 12.6615C96.5316 12.7423 96.3297 12.823 96.0673 12.9037C95.8049 12.9845 95.5173 13.0551 95.2044 13.1157C94.9016 13.1762 94.5837 13.2267 94.2507 13.2671C93.9277 13.3074 93.63 13.3276 93.3575 13.3276C91.6518 13.3276 90.36 12.8533 89.4819 11.9046C88.6039 10.9559 88.1649 9.58834 88.1649 7.80196C88.1649 6.01558 88.619 4.64804 89.5274 3.69935C90.4458 2.75065 91.8184 2.2763 93.6451 2.2763Z" fill="#D2E4D5"/>
<path d="M98.2155 13.1005V12.4042L99.6083 12.0711V3.53282L98.2155 3.19977V2.50338H106.027V5.60683H105.331L104.695 3.51768L101.47 3.39657V7.2721L104.74 6.9996V8.34696L101.47 8.0896V12.0711L103.166 12.4042V13.1005H98.2155Z" fill="#D2E4D5"/>
<path d="M106.933 13.1005V12.4042L108.371 12.056L108.856 3.51768L107.523 3.19977L107.539 2.50338H110.778L114.185 10.4058L117.621 2.50338H120.74V3.19977L119.377 3.51768L119.892 12.0711L121.345 12.4042V13.1005H116.743V12.4042L118.075 12.0862L117.666 4.91045L114.079 13.1762H113.412L109.779 4.89531L109.401 12.0862L110.748 12.4042V13.1005H106.933Z" fill="#D2E4D5"/>
<path d="M122.432 13.1005V12.4042L123.824 12.0711V3.53282L122.432 3.19977V2.50338H127.079V3.19977L125.686 3.53282V12.0862H129.244L130.062 9.83056H130.758L130.607 13.1005H122.432Z" fill="#D2E4D5"/>
</svg>
