<svg width="20" height="20" viewBox="0 0 20 20" fill="none" xmlns="http://www.w3.org/2000/svg">
<path d="M10.2825 0.142961C10.2069 0.0706385 10.1063 0.0302734 10.0017 0.0302734C9.89709 0.0302734 9.7965 0.0706385 9.7209 0.142961L0.37207 9.07386C0.332367 9.11184 0.30078 9.15748 0.279221 9.20802C0.257662 9.25855 0.246578 9.31294 0.246641 9.36788L0.245117 17.7498C0.245117 18.1808 0.416322 18.5941 0.721069 18.8989C1.02582 19.2036 1.43914 19.3748 1.87012 19.3748H6.7502C6.96568 19.3748 7.17235 19.2892 7.32472 19.1369C7.47709 18.9845 7.5627 18.7778 7.5627 18.5623V11.6561C7.5627 11.5483 7.6055 11.445 7.68168 11.3688C7.75787 11.2926 7.8612 11.2498 7.96895 11.2498H12.0314C12.1392 11.2498 12.2425 11.2926 12.3187 11.3688C12.3949 11.445 12.4377 11.5483 12.4377 11.6561V18.5623C12.4377 18.7778 12.5233 18.9845 12.6757 19.1369C12.828 19.2892 13.0347 19.3748 13.2502 19.3748H18.1282C18.5592 19.3748 18.9725 19.2036 19.2773 18.8989C19.582 18.5941 19.7532 18.1808 19.7532 17.7498V9.36788C19.7533 9.31294 19.7422 9.25855 19.7207 9.20802C19.6991 9.15748 19.6675 9.11184 19.6278 9.07386L10.2825 0.142961Z" fill="#B2DAAC"/>
</svg>
