<svg width="22" height="20" viewBox="0 0 22 20" fill="none" xmlns="http://www.w3.org/2000/svg">
<path d="M17.656 15.3649C16.8492 15.8282 15.9572 16.182 15.006 16.403C15.2681 15.6097 15.4094 14.7651 15.4094 13.8889C15.4094 9.28652 11.5102 5.55556 6.70036 5.55556C5.68044 5.55556 4.70147 5.72331 3.79195 6.03157C4.90105 2.5487 8.46391 0 12.6878 0C17.7982 0 21.9411 3.73096 21.9411 8.33333C21.9411 9.84412 21.4947 11.261 20.7142 12.4828C20.7385 12.5237 20.7606 12.5668 20.7803 12.612L21.9027 15.1895C22.3047 16.1127 21.3888 17.06 20.4791 16.662L17.9537 15.5574C17.8408 15.508 17.7413 15.4424 17.656 15.3649Z" fill="#A9CFA3"/>
<path d="M6.70036 20C10.3078 20 13.2321 17.264 13.2321 13.8889C13.2321 10.5138 10.3078 7.77778 6.70036 7.77778C3.09297 7.77778 0.168599 10.5138 0.168599 13.8889C0.168599 14.8266 0.394318 15.7149 0.797693 16.509L0.0744764 18.4466C-0.278737 19.393 0.691196 20.2889 1.57863 19.836L3.16327 19.0273C4.18264 19.6428 5.39691 20 6.70036 20Z" fill="#A9CFA3"/>
</svg>
