<svg width="20" height="20" viewBox="0 0 20 20" fill="none" xmlns="http://www.w3.org/2000/svg">
<path d="M4.00008 10C4.00008 10.3682 3.7016 10.6667 3.33341 10.6667C2.96522 10.6667 2.66675 10.3682 2.66675 10C2.66675 9.63185 2.96522 9.33337 3.33341 9.33337C3.7016 9.33337 4.00008 9.63185 4.00008 10Z" stroke="white"/>
<path d="M10.6667 10C10.6667 10.3682 10.3683 10.6667 10.0001 10.6667C9.63189 10.6667 9.33341 10.3682 9.33341 10C9.33341 9.63185 9.63189 9.33337 10.0001 9.33337C10.3683 9.33337 10.6667 9.63185 10.6667 10Z" stroke="white"/>
<path d="M17.3334 10C17.3334 10.3682 17.0349 10.6667 16.6667 10.6667C16.2986 10.6667 16.0001 10.3682 16.0001 10C16.0001 9.63185 16.2986 9.33337 16.6667 9.33337C17.0349 9.33337 17.3334 9.63185 17.3334 10Z" stroke="white"/>
</svg>
