<svg width="251" height="85" viewBox="0 0 251 85" fill="none" xmlns="http://www.w3.org/2000/svg">
<path d="M123.615 75.1348C123.767 75.155 123.918 75.1701 124.069 75.1802C124.221 75.1903 124.367 75.1953 124.508 75.1953C124.851 75.1953 125.169 75.1449 125.462 75.0439C125.765 74.943 126.022 74.7916 126.234 74.5898C126.456 74.3879 126.628 74.1407 126.749 73.848C126.87 73.5553 126.931 73.2121 126.931 72.8185C126.931 72.0313 126.693 71.4409 126.219 71.0473C125.755 70.6537 125.144 70.4569 124.387 70.4569H123.615V75.1348ZM120.36 80.1003V79.4039L121.753 79.0709V70.5326L120.36 70.1995V69.5031H124.387C127.354 69.5031 128.838 70.6083 128.838 72.8185C128.838 73.9388 128.449 74.7765 127.672 75.3316C126.905 75.8766 125.891 76.1491 124.629 76.1491C124.276 76.1491 123.938 76.1238 123.615 76.0734V79.0709L125.462 79.4039V80.1003H120.36Z" fill="#D2E4D5"/>
<path d="M133.608 72.3038C134.718 72.3038 135.636 72.6823 136.363 73.4392C137.09 74.1861 137.453 75.1398 137.453 76.3005C137.453 77.4712 137.09 78.435 136.363 79.192C135.636 79.9489 134.718 80.3274 133.608 80.3274C132.498 80.3274 131.574 79.9489 130.837 79.192C130.111 78.435 129.747 77.4712 129.747 76.3005C129.747 75.1398 130.111 74.1861 130.837 73.4392C131.574 72.6823 132.498 72.3038 133.608 72.3038ZM133.608 73.1364C132.982 73.1364 132.498 73.4241 132.155 73.9994C131.821 74.5746 131.655 75.3417 131.655 76.3005C131.655 77.2592 131.821 78.0313 132.155 78.6167C132.498 79.2021 132.982 79.4947 133.608 79.4947C134.234 79.4947 134.713 79.2021 135.046 78.6167C135.389 78.0212 135.561 77.2492 135.561 76.3005C135.561 75.3417 135.389 74.5746 135.046 73.9994C134.713 73.4241 134.234 73.1364 133.608 73.1364Z" fill="#D2E4D5"/>
<path d="M137.968 73.1819V72.5309H141.874V73.1819L140.86 73.4392L142.343 77.5721L144.054 72.5309H145.129L146.885 77.4964L148.263 73.4846L147.021 73.1819V72.5309H150.306V73.1819L149.141 73.4846L146.9 80.2063H145.931L144.099 75.0591L142.359 80.2063H141.405L138.922 73.4544L137.968 73.1819Z" fill="#D2E4D5"/>
<path d="M150.785 76.2248C150.785 75.1146 151.103 74.1861 151.739 73.4392C152.375 72.6823 153.253 72.3038 154.373 72.3038C154.958 72.3038 155.468 72.4148 155.902 72.6369C156.346 72.8488 156.694 73.1465 156.947 73.5301C157.209 73.9136 157.401 74.3425 157.522 74.8169C157.643 75.2912 157.703 75.8059 157.703 76.361H152.587C152.657 77.1886 152.935 77.8951 153.419 78.4804C153.904 79.0557 154.565 79.3434 155.402 79.3434C155.937 79.3434 156.518 79.2273 157.143 78.9952L157.401 79.7067C156.462 80.1205 155.569 80.3274 154.721 80.3274C153.5 80.3274 152.536 79.9287 151.83 79.1314C151.133 78.3341 150.785 77.3652 150.785 76.2248ZM152.587 75.6192L155.826 75.377C155.796 74.7714 155.655 74.2466 155.402 73.8026C155.15 73.3585 154.792 73.1364 154.328 73.1364C153.823 73.1364 153.409 73.3736 153.086 73.848C152.773 74.3223 152.607 74.9127 152.587 75.6192Z" fill="#D2E4D5"/>
<path d="M158.811 80.1003V79.4493L160.097 79.1465V73.7571H158.811V73.1062L161.233 72.5309H161.899V73.4695C162.716 72.6924 163.665 72.3038 164.745 72.3038C164.806 72.4956 164.836 72.7075 164.836 72.9396C164.836 73.3131 164.79 73.6461 164.7 73.9388L162.777 73.7723C162.474 73.9136 162.182 74.0851 161.899 74.287V79.1465L163.488 79.4493V80.1003H158.811Z" fill="#D2E4D5"/>
<path d="M165.613 76.2248C165.613 75.1146 165.931 74.1861 166.567 73.4392C167.203 72.6823 168.081 72.3038 169.201 72.3038C169.787 72.3038 170.296 72.4148 170.73 72.6369C171.174 72.8488 171.523 73.1465 171.775 73.5301C172.037 73.9136 172.229 74.3425 172.35 74.8169C172.471 75.2912 172.532 75.8059 172.532 76.361H167.415C167.486 77.1886 167.763 77.8951 168.248 78.4804C168.732 79.0557 169.393 79.3434 170.231 79.3434C170.766 79.3434 171.346 79.2273 171.972 78.9952L172.229 79.7067C171.29 80.1205 170.397 80.3274 169.549 80.3274C168.328 80.3274 167.364 79.9287 166.658 79.1314C165.962 78.3341 165.613 77.3652 165.613 76.2248ZM167.415 75.6192L170.655 75.377C170.624 74.7714 170.483 74.2466 170.231 73.8026C169.978 73.3585 169.62 73.1364 169.156 73.1364C168.651 73.1364 168.237 73.3736 167.914 73.848C167.602 74.3223 167.435 74.9127 167.415 75.6192Z" fill="#D2E4D5"/>
<path d="M173.745 76.5881C173.745 75.2256 174.164 74.1709 175.001 73.4241C175.839 72.6772 176.853 72.3038 178.044 72.3038C178.468 72.3038 178.837 72.3492 179.149 72.4401V69.2155H177.863V68.5645L180.285 67.9893H180.966V79.1163H182.147V79.6159L181.905 79.8127C181.804 79.8934 181.612 79.9994 181.329 80.1306C181.057 80.2618 180.789 80.3274 180.527 80.3274C180.416 80.3274 180.305 80.3122 180.194 80.282C180.093 80.2618 180.002 80.2315 179.922 80.1911C179.841 80.1508 179.765 80.1053 179.694 80.0549C179.624 79.9943 179.563 79.9388 179.513 79.8883C179.472 79.8379 179.427 79.7824 179.377 79.7218C179.336 79.6613 179.306 79.6108 179.286 79.5704C179.266 79.5301 179.24 79.4846 179.21 79.4342L179.18 79.3736C178.574 80.0095 177.827 80.3274 176.939 80.3274C176.061 80.3274 175.309 80.0095 174.684 79.3736C174.058 78.7277 173.745 77.7992 173.745 76.5881ZM175.607 76.5275C175.607 77.3955 175.799 78.0566 176.182 78.5107C176.576 78.9649 177.04 79.192 177.575 79.192C178.14 79.192 178.665 79.0053 179.149 78.6318V73.2878C178.837 73.1869 178.514 73.1364 178.181 73.1364C177.414 73.1364 176.793 73.4241 176.318 73.9994C175.844 74.5746 175.607 75.4174 175.607 76.5275Z" fill="#D2E4D5"/>
<path d="M185.775 69.2155V68.5645L188.197 67.9893H188.863V73.0153C189.519 72.541 190.236 72.3038 191.013 72.3038C191.951 72.3038 192.728 72.6268 193.344 73.2727C193.96 73.9186 194.268 74.837 194.268 76.028C194.268 77.34 193.844 78.3846 192.996 79.1617C192.158 79.9388 191.124 80.3274 189.892 80.3274C188.873 80.3274 187.929 80.07 187.061 79.5553V69.2155H185.775ZM188.863 79.3736C189.146 79.4443 189.443 79.4796 189.756 79.4796C190.533 79.4796 191.164 79.192 191.649 78.6167C192.143 78.0313 192.39 77.1886 192.39 76.0885C192.39 75.2105 192.199 74.5494 191.815 74.1053C191.432 73.6613 190.937 73.4392 190.331 73.4392C189.897 73.4392 189.408 73.5704 188.863 73.8328V79.3736Z" fill="#D2E4D5"/>
<path d="M194.812 73.1819V72.5309H198.945V73.1819L197.779 73.4089L199.929 78.2079L201.746 73.4846L200.534 73.1819V72.5309H203.88V73.1819L202.684 73.4998L198.4 84.6268C197.946 84.6268 197.603 84.5612 197.37 84.43C197.148 84.2988 196.977 84.1373 196.856 83.9455L199.021 80.509L195.841 73.4695L194.812 73.1819Z" fill="#D2E4D5"/>
<path d="M213.645 69.2761C214.816 69.2761 215.8 69.4527 216.597 69.8059V72.6671H215.901L215.204 70.4266C214.811 70.3358 214.357 70.2904 213.842 70.2904C211.329 70.2904 210.072 71.7941 210.072 74.8017C210.072 77.8093 211.228 79.3131 213.539 79.3131C213.882 79.3131 214.19 79.303 214.463 79.2828C214.735 79.2626 214.982 79.2323 215.204 79.192L216.082 76.8H216.779L216.673 79.6613C216.532 79.742 216.33 79.8227 216.067 79.9035C215.805 79.9842 215.517 80.0549 215.204 80.1154C214.902 80.176 214.584 80.2264 214.251 80.2668C213.928 80.3072 213.63 80.3274 213.357 80.3274C211.652 80.3274 210.36 79.853 209.482 78.9043C208.604 77.9556 208.165 76.5881 208.165 74.8017C208.165 73.0153 208.619 71.6478 209.527 70.6991C210.446 69.7504 211.818 69.2761 213.645 69.2761Z" fill="#D2E4D5"/>
<path d="M218.215 80.1003V79.4039L219.608 79.0709V70.5326L218.215 70.1995V69.5031H226.027V72.6066H225.331L224.695 70.5174L221.47 70.3963V74.2719L224.74 73.9994V75.3467L221.47 75.0894V79.0709L223.166 79.4039V80.1003H218.215Z" fill="#D2E4D5"/>
<path d="M226.933 80.1003V79.4039L228.371 79.0557L228.856 70.5174L227.523 70.1995L227.539 69.5031H230.778L234.185 77.4056L237.621 69.5031H240.74V70.1995L239.377 70.5174L239.892 79.0709L241.345 79.4039V80.1003H236.743V79.4039L238.075 79.086L237.666 71.9102L234.079 80.176H233.412L229.779 71.8951L229.401 79.086L230.748 79.4039V80.1003H226.933Z" fill="#D2E4D5"/>
<path d="M242.432 80.1003V79.4039L243.824 79.0709V70.5326L242.432 70.1995V69.5031H247.079V70.1995L245.686 70.5326V79.086H249.244L250.062 76.8303H250.758L250.607 80.1003H242.432Z" fill="#D2E4D5"/>
<path d="M-67.9606 4.10715C-68.6961 6.07727 -68.6042 45.3005 -67.7767 46.0169C-67.5009 46.3751 -62.6283 42.1662 -57.0202 36.7036L-46.9072 26.853L-40.9313 32.6738C-37.7135 35.8976 -34.5877 38.4946 -34.036 38.4946C-32.4731 38.4946 -15.3729 21.3009 -15.8326 20.1367C-16.1084 19.4203 -14.5455 18.6144 -11.5116 17.8084L-6.82282 16.6442L-7.37444 3.12209L-37.3458 2.85344C-64.7428 2.67434 -67.409 2.76389 -67.9606 4.10715Z" fill="#D2E4D5"/>
<path d="M-8.3139 26.1038C-8.59348 27.3544 -9.52541 28.337 -10.4573 28.337C-11.2961 28.337 -16.7944 32.9821 -22.6656 38.6098C-28.5367 44.2375 -33.7555 48.8826 -34.3147 48.8826C-34.7806 48.8826 -37.9492 46.292 -41.3041 43.1655L-47.3616 37.3592L-56.5877 45.8454C-61.6201 50.4905 -66.1866 54.2422 -66.5593 54.2422C-67.0253 54.2422 -67.3981 53.6169 -67.3981 52.813C-67.3981 52.0984 -67.7708 51.6517 -68.2368 52.009C-68.796 52.277 -69.0755 55.2249 -68.9823 58.53L-68.796 64.515L-37.7628 64.783L-6.82282 64.9616V44.4161C-6.82282 33.1608 -7.00921 23.8706 -7.28878 23.8706C-7.47517 23.8706 -7.94114 24.8532 -8.3139 26.1038Z" fill="#D2E4D5"/>
<path d="M13.4848 58.4736V53.5913L23.1358 51.3205V10.8999H13.4848V6.01767L31.6513 1.70312H36.6471V8.74265C42.7784 2.91422 49.8936 0 57.9928 0C58.447 1.43819 58.6741 3.02776 58.6741 4.76872C58.6741 7.5694 58.3335 10.0673 57.6522 12.2624L43.2325 11.0135C40.9617 12.0732 38.7666 13.36 36.6471 14.8739V51.3205L48.5689 53.5913V58.4736H13.4848Z" fill="#D2E4D5"/>
<path d="M64.5055 29.4071C64.5055 21.0808 66.8898 14.1169 71.6585 8.51557C76.4273 2.83852 83.0126 0 91.4147 0C95.8049 0 99.6275 0.832634 102.882 2.4979C106.213 4.08748 108.824 6.32045 110.717 9.19682C112.685 12.0732 114.123 15.2902 115.031 18.8478C115.939 22.4054 116.394 26.2658 116.394 30.429H78.0168C78.5467 36.6359 80.6283 41.9345 84.2616 46.3247C87.8949 50.6393 92.8528 52.7965 99.1355 52.7965C103.147 52.7965 107.5 51.9261 112.193 50.1851L114.123 55.5215C107.083 58.625 100.384 60.1767 94.0261 60.1767C84.8671 60.1767 77.6384 57.1868 72.3398 51.207C67.1169 45.2271 64.5055 37.9605 64.5055 29.4071ZM78.0168 24.8655L102.315 23.0488C102.088 18.5072 101.028 14.5711 99.1355 11.2406C97.2431 7.91002 94.556 6.24476 91.074 6.24476C87.2893 6.24476 84.1859 8.02356 81.7637 11.5812C79.4172 15.1388 78.1682 19.5669 78.0168 24.8655Z" fill="#D2E4D5"/>
<path d="M121.004 6.58538V1.70312H152.795V6.58538L145.756 7.94787L156.883 22.4811L168.123 8.51557L160.289 6.58538V1.70312H185.381V6.58538L176.071 8.8562L160.629 27.3634L179.25 51.434L188.788 53.5913V58.4736H156.996V53.5913L164.263 52.4559L150.978 35.4248L137.354 51.7747L144.734 53.5913V58.4736H120.209V53.5913L129.406 51.5476L147.118 30.429L130.314 8.74265L121.004 6.58538Z" fill="#D2E4D5"/>
<path d="M193.662 44.3945C193.662 31.2995 205.281 24.7519 228.519 24.7519V20.778C228.519 14.1926 227.573 10.0295 225.68 8.28849C223.864 6.47184 220.987 5.56351 217.051 5.56351L203.767 16.9176C201.95 15.7822 200.399 14.1926 199.112 12.1489C197.901 10.0295 197.257 7.79648 197.182 5.44997C200.361 3.70901 203.843 2.38436 207.627 1.47603C211.412 0.492011 215.159 0 218.868 0C234.385 0 242.144 6.50968 242.144 19.529V51.0934H251V54.8403C249.259 56.5055 247.329 57.7923 245.209 58.7007C243.09 59.6847 241.008 60.1767 238.965 60.1767C234.499 60.1767 231.206 58.2465 229.087 54.3861C224.015 58.2465 218.3 60.1767 211.942 60.1767C206.946 60.1767 202.632 58.8521 198.998 56.2028C195.441 53.5535 193.662 49.6174 193.662 44.3945ZM207.968 43.9403C207.968 46.741 208.876 48.8226 210.693 50.1851C212.585 51.5476 214.97 52.2288 217.846 52.2288C222.009 52.2288 225.567 50.942 228.519 48.3684V30.5425C221.706 30.5425 216.559 31.7915 213.077 34.2894C209.671 36.7116 207.968 39.9286 207.968 43.9403Z" fill="#D2E4D5"/>
<path d="M-67.9606 4.10715C-68.6961 6.07727 -68.6042 45.3005 -67.7767 46.0169C-67.5009 46.3751 -62.6283 42.1662 -57.0202 36.7036L-46.9072 26.853L-40.9313 32.6738C-37.7135 35.8976 -34.5877 38.4946 -34.036 38.4946C-32.4731 38.4946 -15.3729 21.3009 -15.8326 20.1367C-16.1084 19.4203 -14.5455 18.6144 -11.5116 17.8084L-6.82282 16.6442L-7.37444 3.12209L-37.3458 2.85344C-64.7428 2.67434 -67.409 2.76389 -67.9606 4.10715Z" stroke="black"/>
<path d="M-8.3139 26.1038C-8.59348 27.3544 -9.52541 28.337 -10.4573 28.337C-11.2961 28.337 -16.7944 32.9821 -22.6656 38.6098C-28.5367 44.2375 -33.7555 48.8826 -34.3147 48.8826C-34.7806 48.8826 -37.9492 46.292 -41.3041 43.1655L-47.3616 37.3592L-56.5877 45.8454C-61.6201 50.4905 -66.1866 54.2422 -66.5593 54.2422C-67.0253 54.2422 -67.3981 53.6169 -67.3981 52.813C-67.3981 52.0984 -67.7708 51.6517 -68.2368 52.009C-68.796 52.277 -69.0755 55.2249 -68.9823 58.53L-68.796 64.515L-37.7628 64.783L-6.82282 64.9616V44.4161C-6.82282 33.1608 -7.00921 23.8706 -7.28878 23.8706C-7.47517 23.8706 -7.94114 24.8532 -8.3139 26.1038Z" stroke="black"/>
<path d="M13.4848 58.4736V53.5913L23.1358 51.3205V10.8999H13.4848V6.01767L31.6513 1.70312H36.6471V8.74265C42.7784 2.91422 49.8936 0 57.9928 0C58.447 1.43819 58.6741 3.02776 58.6741 4.76872C58.6741 7.5694 58.3335 10.0673 57.6522 12.2624L43.2325 11.0135C40.9617 12.0732 38.7666 13.36 36.6471 14.8739V51.3205L48.5689 53.5913V58.4736H13.4848Z" stroke="black"/>
<path d="M64.5055 29.4071C64.5055 21.0808 66.8898 14.1169 71.6585 8.51557C76.4273 2.83852 83.0126 0 91.4147 0C95.8049 0 99.6275 0.832634 102.882 2.4979C106.213 4.08748 108.824 6.32045 110.717 9.19682C112.685 12.0732 114.123 15.2902 115.031 18.8478C115.939 22.4054 116.394 26.2658 116.394 30.429H78.0168C78.5467 36.6359 80.6283 41.9345 84.2616 46.3247C87.8949 50.6393 92.8528 52.7965 99.1355 52.7965C103.147 52.7965 107.5 51.9261 112.193 50.1851L114.123 55.5215C107.083 58.625 100.384 60.1767 94.0261 60.1767C84.8671 60.1767 77.6384 57.1868 72.3398 51.207C67.1169 45.2271 64.5055 37.9605 64.5055 29.4071ZM78.0168 24.8655L102.315 23.0488C102.088 18.5072 101.028 14.5711 99.1355 11.2406C97.2431 7.91002 94.556 6.24476 91.074 6.24476C87.2893 6.24476 84.1859 8.02356 81.7637 11.5812C79.4172 15.1388 78.1682 19.5669 78.0168 24.8655Z" stroke="black"/>
<path d="M121.004 6.58538V1.70312H152.795V6.58538L145.756 7.94787L156.883 22.4811L168.123 8.51557L160.289 6.58538V1.70312H185.381V6.58538L176.071 8.8562L160.629 27.3634L179.25 51.434L188.788 53.5913V58.4736H156.996V53.5913L164.263 52.4559L150.978 35.4248L137.354 51.7747L144.734 53.5913V58.4736H120.209V53.5913L129.406 51.5476L147.118 30.429L130.314 8.74265L121.004 6.58538Z" stroke="black"/>
<path d="M193.662 44.3945C193.662 31.2995 205.281 24.7519 228.519 24.7519V20.778C228.519 14.1926 227.573 10.0295 225.68 8.28849C223.864 6.47184 220.987 5.56351 217.051 5.56351L203.767 16.9176C201.95 15.7822 200.399 14.1926 199.112 12.1489C197.901 10.0295 197.257 7.79648 197.182 5.44997C200.361 3.70901 203.843 2.38436 207.627 1.47603C211.412 0.492011 215.159 0 218.868 0C234.385 0 242.144 6.50968 242.144 19.529V51.0934H251V54.8403C249.259 56.5055 247.329 57.7923 245.209 58.7007C243.09 59.6847 241.008 60.1767 238.965 60.1767C234.499 60.1767 231.206 58.2465 229.087 54.3861C224.015 58.2465 218.3 60.1767 211.942 60.1767C206.946 60.1767 202.632 58.8521 198.998 56.2028C195.441 53.5535 193.662 49.6174 193.662 44.3945ZM207.968 43.9403C207.968 46.741 208.876 48.8226 210.693 50.1851C212.585 51.5476 214.97 52.2288 217.846 52.2288C222.009 52.2288 225.567 50.942 228.519 48.3684V30.5425C221.706 30.5425 216.559 31.7915 213.077 34.2894C209.671 36.7116 207.968 39.9286 207.968 43.9403Z" stroke="black"/>
</svg>
