<svg width="64" height="68" viewBox="0 0 64 68" fill="none" xmlns="http://www.w3.org/2000/svg">
<path d="M46.6063 51.3446C46.6063 53.9105 46.6063 56.48 46.6063 59.0406C46.5886 62.7451 44.044 66.3558 40.5625 67.6113C39.9357 67.838 39.2698 67.8628 38.6146 67.9141H38.179C37.9789 67.9425 37.7664 67.8521 37.577 67.9814H9.08107C8.89337 67.8521 8.6791 67.9425 8.479 67.9141H8.03629C4.2078 67.5847 2.00314 65.2154 0.59889 61.8934C0.241186 61.0558 0.280144 60.1084 0.280144 59.2088C0.267748 42.3967 0.299623 25.5829 0.25004 8.77082C0.237645 4.62004 3.08334 1.60967 6.13798 0.355933C6.7436 0.111561 7.39526 0.146977 8.02744 0.0672908C8.17442 0.0672908 8.32316 0.0672908 8.47191 0.0672908C8.67378 0.0389578 8.88982 0.129269 9.08107 0H37.7027C37.8798 0.129269 38.0993 0.0389578 38.2977 0.0672908H38.6182C42.2767 0.332912 44.4796 2.52518 45.9104 5.67191C46.4207 6.85292 46.6598 8.13334 46.6099 9.41894C46.5709 11.9158 46.5939 14.4144 46.601 16.9112" fill="black"/>
<path d="M9.08108 0C9.00589 0.0593638 8.91829 0.101017 8.82478 0.121865C8.73128 0.142712 8.63427 0.142216 8.54099 0.120415C8.4613 0.0726032 8.46484 0.0318746 8.55161 0H9.08108Z" fill="#96C9FE"/>
<path d="M38.241 0.116873C38.1492 0.136112 38.0544 0.135641 37.9628 0.115493C37.8712 0.0953455 37.7849 0.0559795 37.7097 0H38.241C38.3206 0.0336454 38.3242 0.0726032 38.241 0.116873Z" fill="#ADD5FE"/>
<path d="M8.54094 67.8521C8.63423 67.8303 8.73123 67.8298 8.82473 67.8506C8.91824 67.8715 9.00584 67.9131 9.08103 67.9725H8.54979C8.46479 67.9406 8.46125 67.8999 8.54094 67.8521Z" fill="#97CAFE"/>
<path d="M37.5698 67.9725C37.6453 67.913 37.7332 67.8713 37.827 67.8504C37.9208 67.8296 38.0181 67.8302 38.1117 67.8521C38.1613 67.884 38.1754 67.9123 38.156 67.9371C38.1498 67.9469 38.1415 67.9552 38.1317 67.9614C38.1219 67.9675 38.1108 67.9713 38.0993 67.9725H37.5698Z" fill="#94C8FE"/>
<path d="M8.55163 0C8.55163 0.0409592 8.54808 0.0818411 8.54101 0.122186H8.14612C8.14875 0.0832725 8.14875 0.0442258 8.14612 0.00531243L8.55163 0Z" fill="#CCE5FE"/>
<path d="M8.541 67.8521C8.54726 67.8919 8.55081 67.9321 8.55163 67.9725H8.16028C8.16379 67.9336 8.16379 67.8945 8.16028 67.8556L8.541 67.8521Z" fill="#CEE6FE"/>
<path d="M38.0994 67.9725C38.1008 67.9321 38.1049 67.8919 38.1118 67.8521H38.5066C38.5001 67.8901 38.4972 67.9286 38.4978 67.9672L38.0994 67.9725Z" fill="#CAE4FE"/>
<path d="M38.241 0.116873C38.241 0.0779156 38.241 0.0389578 38.2322 0H38.4978C38.4978 0.037187 38.4978 0.074374 38.5067 0.111561L38.241 0.116873Z" fill="#D2E8FE"/>
<path d="M39.1494 49.8164C39.516 49.9333 39.5762 50.2308 39.578 50.5566C39.5974 53.1225 39.6435 55.6919 39.5585 58.2543C39.5107 59.7064 38.4358 61.1195 36.5375 61.1124C27.7489 61.0823 18.9604 61.0699 10.1719 61.1248C9.36955 61.1173 8.60293 60.7919 8.04023 60.2199C7.47754 59.6479 7.1647 58.876 7.17036 58.0737C7.21463 43.7584 7.19693 29.4432 7.19693 15.128C7.19693 13.2917 7.24828 11.4536 7.18276 9.61899C7.13318 8.22005 8.59941 6.7857 9.91512 6.86007C11.2308 6.93445 12.52 6.86007 13.8215 6.87778C14.3014 6.87778 14.7069 7.00705 14.884 7.49225C15.2506 8.50693 16.0581 8.80442 17.0232 8.85223C17.5296 8.8788 18.0378 8.86286 18.546 8.86286H29.0788C29.4983 8.87288 29.9175 8.83666 30.329 8.75484C30.9824 8.6114 31.4659 8.27849 31.7067 7.64277C31.9139 7.09028 32.307 6.87424 32.8843 6.87601C34.1239 6.87601 35.3634 6.90789 36.603 6.87601C38.3579 6.81934 39.4859 8.1687 39.5479 9.65972C39.6576 12.2664 39.5992 14.8801 39.5726 17.4902C39.5726 17.8001 39.477 18.0587 39.1477 18.1632" fill="#FEFEFE"/>
<path d="M25.2627 39.3279C23.9611 39.358 22.6578 39.3527 21.3563 39.3279C21.173 39.3342 20.9906 39.3005 20.8217 39.2289C20.6529 39.1573 20.5018 39.0497 20.3789 38.9135C20.2561 38.7774 20.1646 38.616 20.1107 38.4407C20.0568 38.2654 20.0419 38.0805 20.0671 37.8988C20.1291 37.1816 20.671 36.7142 21.5546 36.6947C22.8119 36.6681 27.5169 36.7248 27.5169 36.7248L30.8212 31.4123C30.8212 31.4123 25.9232 31.3149 24.2568 31.3149C22.0947 31.3149 19.9308 31.3291 17.7686 31.3149C16.6548 31.3043 15.9765 30.3569 16.4051 29.4485C16.6813 28.8641 17.1771 28.6587 17.8217 28.6623C20.315 28.6747 22.8101 28.6623 25.3034 28.6764H33.1605L26.7944 39.3544L25.2627 39.3279Z" fill="black"/>
<path d="M39.1494 18.1561C39.3265 17.9206 39.2787 17.6496 39.2787 17.3858C39.2787 14.9757 39.2574 12.5639 39.2893 10.152C39.3088 8.66986 38.4376 7.02301 36.309 7.14165C35.1191 7.20363 33.9238 7.16113 32.732 7.14165C32.3778 7.14165 32.1618 7.21603 32.0591 7.60029C31.7687 8.6858 30.9523 9.12142 29.9182 9.12673C25.5242 9.14798 21.1302 9.14798 16.7363 9.12673C15.7021 9.12673 14.8999 8.66101 14.6113 7.57019C14.5916 7.4389 14.5208 7.32073 14.4143 7.24145C14.3078 7.16216 14.1743 7.1282 14.0429 7.14697C12.6067 7.15936 11.1706 7.12749 9.73804 7.16999C8.60117 7.2054 7.56525 8.26966 7.48202 9.40121C7.46608 9.62256 7.46786 9.84391 7.46786 10.0653C7.46904 26.0155 7.46372 41.9652 7.45192 57.9143C7.45192 59.1539 7.86452 60.0535 8.97305 60.6201C9.42991 60.8539 9.91512 60.8255 10.4003 60.8255H31.3313C33.0543 60.8255 34.7755 60.8255 36.4985 60.8255C38.0781 60.8255 39.1955 59.8675 39.2415 58.2862C39.3176 55.5893 39.2663 52.8888 39.2592 50.1901C39.239 50.0602 39.199 49.9342 39.1406 49.8164C40.4651 49.8164 41.7968 49.8164 43.1143 49.7916C43.5056 49.7916 43.6703 49.928 43.6685 50.3229C43.6561 53.3332 43.7518 56.3436 43.6296 59.354C43.5021 62.4901 40.5307 65.2862 37.3822 65.2986C28.0193 65.3328 18.6564 65.3328 9.29356 65.2986C5.92902 65.2862 2.99479 62.2404 2.98771 58.8387C2.97236 50.9161 2.97236 42.9947 2.98771 35.0744C2.98771 26.5745 2.98771 18.0782 2.98771 9.58537C2.98771 5.51251 5.83163 2.65088 9.89387 2.65088C18.8825 2.65088 27.8705 2.65088 36.858 2.65088C40.3376 2.65088 42.923 4.79179 43.5871 8.21831C43.6313 8.43454 43.6545 8.65457 43.6561 8.87528C43.6561 11.7511 43.6561 14.6286 43.6703 17.5044C43.6703 17.9648 43.5658 18.1968 43.047 18.1827C41.7525 18.1543 40.4492 18.1649 39.1494 18.1561Z" fill="#C4C4C4"/>
<path d="M14.0553 39.3244C13.6586 39.3244 13.2584 39.3492 12.8635 39.3244C12.553 39.3044 12.2601 39.1731 12.0385 38.9545C11.817 38.7359 11.6818 38.4448 11.6577 38.1345C11.6336 37.8243 11.7222 37.5157 11.9073 37.2655C12.0923 37.0154 12.3615 36.8404 12.6652 36.7726C13.5812 36.6168 14.517 36.6168 15.433 36.7726C15.7384 36.8363 16.0104 37.0085 16.1987 37.2572C16.3869 37.506 16.4788 37.8145 16.4572 38.1257C16.4356 38.4369 16.302 38.7298 16.0812 38.9502C15.8603 39.1705 15.5672 39.3035 15.2559 39.3244C14.8521 39.3492 14.4537 39.3244 14.0553 39.3244Z" fill="black"/>
<path d="M29.6206 47.146C29.1698 47.1459 28.7272 47.0264 28.3376 46.7997C27.948 46.573 27.6254 46.2471 27.4027 45.8552C27.1799 45.4634 27.065 45.0195 27.0695 44.5687C27.074 44.118 27.1978 43.6765 27.4283 43.2892L41.0034 20.4864C41.2296 20.1067 41.5506 19.7922 41.9349 19.5738C42.3192 19.3554 42.7536 19.2406 43.1956 19.2406C43.6377 19.2406 44.0721 19.3554 44.4564 19.5738C44.8407 19.7922 45.1617 20.1067 45.3879 20.4864L58.9647 43.2892C59.1953 43.6766 59.3191 44.1183 59.3236 44.5692C59.328 45.0201 59.2129 45.4641 58.9899 45.856C58.767 46.2479 58.4441 46.5738 58.0543 46.8004C57.6645 47.027 57.2216 47.1462 56.7707 47.146H29.6206Z" fill="#FEFEFE"/>
<path d="M43.1957 21.8216L56.7442 44.5783H29.6508L43.1975 21.8216H43.1957ZM43.1975 16.6721C42.309 16.6665 41.4346 16.8946 40.6619 17.3334C39.8893 17.7723 39.2456 18.4065 38.7953 19.1725L25.222 41.9752C24.7593 42.7524 24.5107 43.6382 24.5016 44.5426C24.4925 45.4471 24.7231 46.3378 25.1701 47.1241C25.6171 47.9104 26.2644 48.5643 27.0461 49.0191C27.8279 49.474 28.7162 49.7136 29.6207 49.7136H56.7708C57.6754 49.7139 58.5639 49.4745 59.3459 49.0198C60.1279 48.5651 60.7755 47.9112 61.2227 47.1248C61.6698 46.3385 61.9007 45.4477 61.8916 44.5431C61.8826 43.6385 61.634 42.7525 61.1712 41.9752L47.5944 19.1725C47.1444 18.407 46.5012 17.7731 45.7293 17.3343C44.9573 16.8955 44.0837 16.6672 43.1957 16.6721H43.1975Z" fill="#C4C4C4"/>
<path fill-rule="evenodd" clip-rule="evenodd" d="M43.194 18.5321C42.6292 18.5321 42.0742 18.6789 41.5832 18.9579C41.0924 19.237 40.6824 19.6387 40.3935 20.1238C40.3934 20.1239 40.3935 20.1238 40.3935 20.1238L26.8202 42.9266C26.5256 43.4214 26.3672 43.9856 26.3614 44.5614C26.3556 45.1373 26.5025 45.7044 26.787 46.205C27.0716 46.7057 27.4838 47.122 27.9815 47.4116C28.4793 47.7012 29.0449 47.8538 29.6207 47.8538H56.7696C57.3456 47.854 57.9113 47.7016 58.4092 47.412C58.9072 47.1225 59.3195 46.7062 59.6042 46.2055C59.8889 45.7048 60.0358 45.1377 60.0301 44.5617C60.0243 43.9858 59.8661 43.4216 59.5714 42.9268L45.9946 20.1241C45.7057 19.6388 45.2957 19.237 44.8047 18.9579C44.3137 18.6789 43.7587 18.5321 43.194 18.5321ZM23.6239 41.0238C23.624 41.0237 23.6239 41.0238 23.6239 41.0238L37.1971 18.2212C37.8157 17.1823 38.6938 16.3216 39.7451 15.7241C40.7963 15.1265 41.9848 14.8124 43.194 14.8124C44.4032 14.8124 45.5916 15.1265 46.6429 15.7241C47.6941 16.3216 48.5721 17.182 49.1907 18.221L62.7675 41.0238C63.3985 42.0834 63.7373 43.2914 63.7497 44.5246C63.762 45.7578 63.4473 46.9722 62.8377 48.0443C62.2281 49.1163 61.3453 50.0077 60.2791 50.6277C59.2132 51.2475 58.0021 51.5739 56.769 51.5736C56.7688 51.5736 56.7686 51.5736 56.7684 51.5736H29.6207C28.3876 51.5736 27.1766 51.2469 26.1108 50.6267C25.045 50.0066 24.1625 49.1152 23.5532 48.0432C22.9439 46.9712 22.6294 45.757 22.6418 44.524C22.6543 43.291 22.9932 42.0832 23.6239 41.0238Z" fill="black"/>
<path d="M42.1456 41.1961C42.1456 40.8598 42.2792 40.5373 42.517 40.2995C42.7548 40.0618 43.0773 39.9282 43.4135 39.9282C43.7498 39.9282 44.0723 40.0618 44.3101 40.2995C44.5478 40.5373 44.6814 40.8598 44.6814 41.1961C44.6814 41.5323 44.5478 41.8548 44.3101 42.0926C44.0723 42.3304 43.7498 42.464 43.4135 42.464C43.0773 42.464 42.7548 42.3304 42.517 42.0926C42.2792 41.8548 42.1456 41.5323 42.1456 41.1961ZM44.5203 29.6433C44.5203 30.3888 44.2989 32.2995 44.0369 35.1187L43.7748 37.9165H43.0452L42.7831 35.1187C42.5228 32.2995 42.3015 30.3888 42.3015 29.6433C42.3015 28.7774 42.7229 28.4161 43.4082 28.4161C44.0935 28.4161 44.5203 28.7774 44.5203 29.6433Z" fill="black"/>
</svg>
