<svg width="148" height="40" viewBox="0 0 148 40" fill="none" xmlns="http://www.w3.org/2000/svg">
<path d="M89.0845 34.7501C89.1545 34.7594 89.2245 34.7664 89.2946 34.7711C89.3646 34.7758 89.4323 34.7781 89.4976 34.7781C89.6563 34.7781 89.8034 34.7548 89.9387 34.7081C90.0788 34.6614 90.1978 34.5914 90.2958 34.498C90.3985 34.4047 90.4778 34.2903 90.5339 34.155C90.5899 34.0196 90.6179 33.8609 90.6179 33.6789C90.6179 33.3148 90.5082 33.0417 90.2888 32.8597C90.0741 32.6776 89.7917 32.5866 89.4416 32.5866H89.0845V34.7501ZM87.5791 37.0467V36.7246L88.2233 36.5706V32.6216L87.5791 32.4676V32.1455H89.4416C90.8139 32.1455 91.5001 32.6566 91.5001 33.6789C91.5001 34.197 91.3204 34.5844 90.961 34.8411C90.6062 35.0932 90.1371 35.2192 89.5536 35.2192C89.3903 35.2192 89.2339 35.2076 89.0845 35.1842V36.5706L89.9387 36.7246V37.0467H87.5791Z" fill="#F7FFF7"/>
<path d="M93.7061 33.4408C94.2196 33.4408 94.6443 33.6158 94.9804 33.9659C95.3165 34.3113 95.4845 34.7524 95.4845 35.2892C95.4845 35.8307 95.3165 36.2765 94.9804 36.6266C94.6443 36.9766 94.2196 37.1517 93.7061 37.1517C93.1927 37.1517 92.7656 36.9766 92.4248 36.6266C92.0887 36.2765 91.9207 35.8307 91.9207 35.2892C91.9207 34.7524 92.0887 34.3113 92.4248 33.9659C92.7656 33.6158 93.1927 33.4408 93.7061 33.4408ZM93.7061 33.8259C93.4167 33.8259 93.1927 33.9589 93.034 34.225C92.8799 34.491 92.8029 34.8458 92.8029 35.2892C92.8029 35.7327 92.8799 36.0898 93.034 36.3605C93.1927 36.6312 93.4167 36.7666 93.7061 36.7666C93.9955 36.7666 94.2172 36.6312 94.3713 36.3605C94.53 36.0851 94.6093 35.728 94.6093 35.2892C94.6093 34.8458 94.53 34.491 94.3713 34.225C94.2172 33.9589 93.9955 33.8259 93.7061 33.8259Z" fill="#F7FFF7"/>
<path d="M95.7228 33.8469V33.5458H97.5293V33.8469L97.0601 33.9659L97.7463 35.8774L98.5375 33.5458H99.0346L99.8468 35.8424L100.484 33.9869L99.9098 33.8469V33.5458H101.429V33.8469L100.89 33.9869L99.8538 37.0957H99.4057L98.5585 34.7151L97.7533 37.0957H97.3122L96.1639 33.9729L95.7228 33.8469Z" fill="#F7FFF7"/>
<path d="M101.651 35.2542C101.651 34.7408 101.798 34.3113 102.092 33.9659C102.386 33.6158 102.792 33.4408 103.31 33.4408C103.581 33.4408 103.816 33.4921 104.017 33.5948C104.223 33.6929 104.384 33.8306 104.5 34.0079C104.622 34.1853 104.71 34.3837 104.766 34.6031C104.822 34.8225 104.85 35.0605 104.85 35.3172H102.484C102.516 35.7 102.645 36.0268 102.869 36.2975C103.093 36.5635 103.399 36.6966 103.786 36.6966C104.033 36.6966 104.302 36.6429 104.591 36.5355L104.71 36.8646C104.276 37.056 103.863 37.1517 103.471 37.1517C102.906 37.1517 102.46 36.9673 102.134 36.5986C101.812 36.2298 101.651 35.7817 101.651 35.2542ZM102.484 34.9742L103.982 34.8621C103.968 34.5821 103.903 34.3393 103.786 34.134C103.669 33.9286 103.504 33.8259 103.289 33.8259C103.056 33.8259 102.864 33.9356 102.715 34.155C102.57 34.3744 102.493 34.6474 102.484 34.9742Z" fill="#F7FFF7"/>
<path d="M105.362 37.0467V36.7456L105.958 36.6056V34.113H105.362V33.8119L106.483 33.5458H106.791V33.9799C107.169 33.6205 107.608 33.4408 108.107 33.4408C108.135 33.5295 108.149 33.6275 108.149 33.7349C108.149 33.9076 108.128 34.0616 108.086 34.197L107.197 34.12C107.057 34.1853 106.921 34.2647 106.791 34.358V36.6056L107.526 36.7456V37.0467H105.362Z" fill="#F7FFF7"/>
<path d="M108.509 35.2542C108.509 34.7408 108.656 34.3113 108.95 33.9659C109.244 33.6158 109.65 33.4408 110.168 33.4408C110.439 33.4408 110.675 33.4921 110.875 33.5948C111.081 33.6929 111.242 33.8306 111.358 34.0079C111.48 34.1853 111.568 34.3837 111.624 34.6031C111.68 34.8225 111.708 35.0605 111.708 35.3172H109.342C109.375 35.7 109.503 36.0268 109.727 36.2975C109.951 36.5635 110.257 36.6966 110.644 36.6966C110.892 36.6966 111.16 36.6429 111.449 36.5355L111.568 36.8646C111.134 37.056 110.721 37.1517 110.329 37.1517C109.764 37.1517 109.319 36.9673 108.992 36.5986C108.67 36.2298 108.509 35.7817 108.509 35.2542ZM109.342 34.9742L110.84 34.8621C110.826 34.5821 110.761 34.3393 110.644 34.134C110.527 33.9286 110.362 33.8259 110.147 33.8259C109.914 33.8259 109.722 33.9356 109.573 34.155C109.428 34.3744 109.351 34.6474 109.342 34.9742Z" fill="#F7FFF7"/>
<path d="M112.27 35.4223C112.27 34.7921 112.463 34.3043 112.851 33.9589C113.238 33.6135 113.707 33.4408 114.258 33.4408C114.454 33.4408 114.624 33.4618 114.769 33.5038V32.0124H114.174V31.7114L115.294 31.4453H115.609V36.5916H116.155V36.8226L116.043 36.9136C115.997 36.951 115.908 37 115.777 37.0607C115.651 37.1214 115.528 37.1517 115.406 37.1517C115.355 37.1517 115.304 37.1447 115.252 37.1307C115.206 37.1213 115.164 37.1073 115.126 37.0887C115.089 37.07 115.054 37.049 115.021 37.0257C114.989 36.9977 114.96 36.972 114.937 36.9486C114.918 36.9253 114.897 36.8996 114.874 36.8716C114.855 36.8436 114.841 36.8203 114.832 36.8016C114.823 36.7829 114.811 36.7619 114.797 36.7386L114.783 36.7106C114.503 37.0047 114.158 37.1517 113.747 37.1517C113.341 37.1517 112.993 37.0047 112.704 36.7106C112.414 36.4118 112.27 35.9824 112.27 35.4223ZM113.131 35.3943C113.131 35.7957 113.219 36.1014 113.397 36.3115C113.579 36.5215 113.794 36.6266 114.041 36.6266C114.302 36.6266 114.545 36.5402 114.769 36.3675V33.8959C114.624 33.8492 114.475 33.8259 114.321 33.8259C113.966 33.8259 113.679 33.9589 113.46 34.225C113.24 34.491 113.131 34.8808 113.131 35.3943Z" fill="#F7FFF7"/>
<path d="M117.833 32.0124V31.7114L118.954 31.4453H119.262V33.7699C119.565 33.5505 119.896 33.4408 120.256 33.4408C120.69 33.4408 121.049 33.5902 121.334 33.8889C121.619 34.1876 121.761 34.6124 121.761 35.1632C121.761 35.77 121.565 36.2531 121.173 36.6126C120.786 36.972 120.307 37.1517 119.738 37.1517C119.266 37.1517 118.83 37.0327 118.428 36.7946V32.0124H117.833ZM119.262 36.7106C119.392 36.7433 119.53 36.7596 119.675 36.7596C120.034 36.7596 120.326 36.6266 120.55 36.3605C120.779 36.0898 120.893 35.7 120.893 35.1912C120.893 34.7851 120.804 34.4794 120.627 34.274C120.45 34.0686 120.221 33.9659 119.941 33.9659C119.74 33.9659 119.514 34.0266 119.262 34.148V36.7106Z" fill="#F7FFF7"/>
<path d="M122.013 33.8469V33.5458H123.924V33.8469L123.385 33.9519L124.38 36.1715L125.22 33.9869L124.66 33.8469V33.5458H126.207V33.8469L125.654 33.9939L123.672 39.1402C123.462 39.1402 123.304 39.1098 123.196 39.0491C123.094 38.9885 123.014 38.9138 122.958 38.8251L123.959 37.2357L122.489 33.9799L122.013 33.8469Z" fill="#F7FFF7"/>
<path d="M130.723 32.0405C131.265 32.0405 131.72 32.1221 132.089 32.2855V33.6088H131.767L131.445 32.5726C131.262 32.5306 131.052 32.5096 130.814 32.5096C129.652 32.5096 129.071 33.2051 129.071 34.5961C129.071 35.9871 129.605 36.6826 130.674 36.6826C130.833 36.6826 130.975 36.6779 131.101 36.6686C131.227 36.6592 131.342 36.6452 131.445 36.6266L131.851 35.5203H132.173L132.124 36.8436C132.058 36.881 131.965 36.9183 131.844 36.9556C131.722 36.993 131.589 37.0257 131.445 37.0537C131.304 37.0817 131.157 37.105 131.003 37.1237C130.854 37.1424 130.716 37.1517 130.59 37.1517C129.801 37.1517 129.204 36.9323 128.798 36.4935C128.392 36.0548 128.189 35.4223 128.189 34.5961C128.189 33.7699 128.399 33.1374 128.819 32.6986C129.244 32.2598 129.878 32.0405 130.723 32.0405Z" fill="#F7FFF7"/>
<path d="M132.837 37.0467V36.7246L133.481 36.5706V32.6216L132.837 32.4676V32.1455H136.45V33.5808H136.128L135.834 32.6146L134.343 32.5586V34.351L135.855 34.225V34.8481L134.343 34.7291V36.5706L135.127 36.7246V37.0467H132.837Z" fill="#F7FFF7"/>
<path d="M136.869 37.0467V36.7246L137.534 36.5635L137.758 32.6146L137.142 32.4676L137.149 32.1455H138.647L140.223 35.8004L141.812 32.1455H143.255V32.4676L142.624 32.6146L142.862 36.5706L143.535 36.7246V37.0467H141.406V36.7246L142.022 36.5776L141.833 33.2588L140.174 37.0817H139.866L138.185 33.2517L138.01 36.5776L138.633 36.7246V37.0467H136.869Z" fill="#F7FFF7"/>
<path d="M144.037 37.0467V36.7246L144.681 36.5706V32.6216L144.037 32.4676V32.1455H146.187V32.4676L145.542 32.6216V36.5776H147.188L147.566 35.5343H147.888L147.818 37.0467H144.037Z" fill="#F7FFF7"/>
<path d="M0.480716 1.89956C0.14055 2.81074 0.183071 20.9515 0.565757 21.2828C0.693319 21.4485 2.94691 19.5019 5.54067 16.9754L10.2179 12.4195L12.9818 15.1116C14.47 16.6027 15.9157 17.8038 16.1708 17.8038C16.8937 17.8038 24.8025 9.85166 24.5899 9.31323C24.4624 8.9819 25.1852 8.60914 26.5884 8.23639L28.7569 7.69796L28.5018 1.44397L14.6401 1.31972C1.96894 1.23688 0.735839 1.2783 0.480716 1.89956Z" fill="#F7FFF7"/>
<path d="M28.0673 12.073C27.938 12.6514 27.507 13.1059 27.076 13.1059C26.6881 13.1059 24.1451 15.2542 21.4297 17.857C18.7143 20.4598 16.3006 22.6082 16.042 22.6082C15.8265 22.6082 14.361 21.4101 12.8093 19.9641L10.0077 17.2786L5.74068 21.2035C3.4132 23.3518 1.30122 25.087 1.12881 25.087C0.913302 25.087 0.740895 24.7978 0.740895 24.426C0.740895 24.0955 0.568489 23.8889 0.352981 24.0542C0.094371 24.1781 -0.0349338 25.5415 0.00816777 27.0701L0.094371 29.8382L14.4472 29.9621L28.7569 30.0448V20.5425C28.7569 15.3369 28.6707 11.0402 28.5414 11.0402C28.4552 11.0402 28.2397 11.4946 28.0673 12.073Z" fill="#F7FFF7"/>
<path d="M38.1492 27.044V24.786L42.6128 23.7357V5.04122H38.1492V2.78317L46.5512 0.787693H48.8618V4.04348C51.6975 1.34783 54.9883 0 58.7342 0C58.9442 0.665161 59.0493 1.40034 59.0493 2.20553C59.0493 3.50085 58.8917 4.65613 58.5766 5.67137L51.9075 5.09373C50.8573 5.58385 49.842 6.17899 48.8618 6.87916V23.7357L54.3756 24.786V27.044H38.1492Z" fill="#F7FFF7"/>
<path d="M61.7463 13.6008C61.7463 9.74986 62.849 6.52908 65.0546 3.93845C67.2601 1.31282 70.3058 0 74.1918 0C76.2223 0 77.9902 0.385093 79.4956 1.15528C81.0359 1.89046 82.2437 2.92321 83.1189 4.25353C84.0292 5.58385 84.6943 7.07171 85.1144 8.71711C85.5345 10.3625 85.7446 12.1479 85.7446 14.0734H67.9953C68.2403 16.9441 69.2031 19.3947 70.8835 21.4252C72.5639 23.4207 74.8569 24.4184 77.7626 24.4184C79.6181 24.4184 81.6311 24.0158 83.8016 23.2106L84.6943 25.6787C81.4385 27.114 78.3403 27.8317 75.3996 27.8317C71.1636 27.8317 67.8202 26.4489 65.3697 23.6832C62.9541 20.9176 61.7463 17.5567 61.7463 13.6008ZM67.9953 11.5003L79.233 10.6601C79.128 8.55957 78.6379 6.73913 77.7626 5.19876C76.8874 3.65839 75.6446 2.8882 74.0342 2.8882C72.2838 2.8882 70.8485 3.7109 69.7282 5.35629C68.6429 7.00169 68.0653 9.04969 67.9953 11.5003Z" fill="#F7FFF7"/>
<path d="M87.8767 3.04574V0.787693H102.58V3.04574L99.3244 3.67589L104.471 10.3975L109.669 3.93845L106.046 3.04574V0.787693H117.651V3.04574L113.345 4.09599L106.204 12.6556L114.816 23.7882L119.227 24.786V27.044H104.523V24.786L107.884 24.2609L101.74 16.384L95.4385 23.9458L98.8518 24.786V27.044H87.5091V24.786L91.7626 23.8408L99.9546 14.0734L92.1827 4.04348L87.8767 3.04574Z" fill="#F7FFF7"/>
<path d="M121.481 20.5325C121.481 14.476 126.855 11.4478 137.602 11.4478V9.60982C137.602 6.56409 137.165 4.63862 136.29 3.83343C135.449 2.99322 134.119 2.57312 132.299 2.57312L126.155 7.82439C125.315 7.29926 124.597 6.56409 124.002 5.61886C123.442 4.63862 123.144 3.60587 123.109 2.52061C124.579 1.71542 126.19 1.10277 127.94 0.682665C129.691 0.227555 131.423 0 133.139 0C140.316 0 143.904 3.01073 143.904 9.03218V23.6307H148V25.3636C147.195 26.1338 146.302 26.729 145.322 27.1491C144.342 27.6042 143.379 27.8317 142.434 27.8317C140.368 27.8317 138.845 26.939 137.865 25.1536C135.519 26.939 132.876 27.8317 129.936 27.8317C127.625 27.8317 125.63 27.2191 123.949 25.9938C122.304 24.7685 121.481 22.948 121.481 20.5325ZM128.098 20.3224C128.098 21.6177 128.518 22.5805 129.358 23.2106C130.233 23.8408 131.336 24.1558 132.666 24.1558C134.592 24.1558 136.237 23.5607 137.602 22.3704V14.1259C134.452 14.1259 132.071 14.7036 130.461 15.8588C128.885 16.9791 128.098 18.467 128.098 20.3224Z" fill="#F7FFF7"/>
<path d="M0.480716 1.89956C0.14055 2.81074 0.183071 20.9515 0.565757 21.2828C0.693319 21.4485 2.94691 19.5019 5.54067 16.9754L10.2179 12.4195L12.9818 15.1116C14.47 16.6027 15.9157 17.8038 16.1708 17.8038C16.8937 17.8038 24.8025 9.85166 24.5899 9.31323C24.4624 8.9819 25.1852 8.60914 26.5884 8.23639L28.7569 7.69796L28.5018 1.44397L14.6401 1.31972C1.96894 1.23688 0.735839 1.2783 0.480716 1.89956Z" stroke="black"/>
<path d="M28.0673 12.073C27.938 12.6514 27.507 13.1059 27.076 13.1059C26.6881 13.1059 24.1451 15.2542 21.4297 17.857C18.7143 20.4598 16.3006 22.6082 16.042 22.6082C15.8265 22.6082 14.361 21.4101 12.8093 19.9641L10.0077 17.2786L5.74068 21.2035C3.4132 23.3518 1.30122 25.087 1.12881 25.087C0.913302 25.087 0.740895 24.7978 0.740895 24.426C0.740895 24.0955 0.568489 23.8889 0.352981 24.0542C0.094371 24.1781 -0.0349338 25.5415 0.00816777 27.0701L0.094371 29.8382L14.4472 29.9621L28.7569 30.0448V20.5425C28.7569 15.3369 28.6707 11.0402 28.5414 11.0402C28.4552 11.0402 28.2397 11.4946 28.0673 12.073Z" stroke="black"/>
<path d="M38.1492 27.044V24.786L42.6128 23.7357V5.04122H38.1492V2.78317L46.5512 0.787693H48.8618V4.04348C51.6975 1.34783 54.9883 0 58.7342 0C58.9442 0.665161 59.0493 1.40034 59.0493 2.20553C59.0493 3.50085 58.8917 4.65613 58.5766 5.67137L51.9075 5.09373C50.8573 5.58385 49.842 6.17899 48.8618 6.87916V23.7357L54.3756 24.786V27.044H38.1492Z" stroke="black"/>
<path d="M61.7463 13.6008C61.7463 9.74986 62.849 6.52908 65.0546 3.93845C67.2601 1.31282 70.3058 0 74.1918 0C76.2223 0 77.9902 0.385093 79.4956 1.15528C81.0359 1.89046 82.2437 2.92321 83.1189 4.25353C84.0292 5.58385 84.6943 7.07171 85.1144 8.71711C85.5345 10.3625 85.7446 12.1479 85.7446 14.0734H67.9953C68.2403 16.9441 69.2031 19.3947 70.8835 21.4252C72.5639 23.4207 74.8569 24.4184 77.7626 24.4184C79.6181 24.4184 81.6311 24.0158 83.8016 23.2106L84.6943 25.6787C81.4385 27.114 78.3403 27.8317 75.3996 27.8317C71.1636 27.8317 67.8202 26.4489 65.3697 23.6832C62.9541 20.9176 61.7463 17.5567 61.7463 13.6008ZM67.9953 11.5003L79.233 10.6601C79.128 8.55957 78.6379 6.73913 77.7626 5.19876C76.8874 3.65839 75.6446 2.8882 74.0342 2.8882C72.2838 2.8882 70.8485 3.7109 69.7282 5.35629C68.6429 7.00169 68.0653 9.04969 67.9953 11.5003Z" stroke="black"/>
<path d="M87.8767 3.04574V0.787693H102.58V3.04574L99.3244 3.67589L104.471 10.3975L109.669 3.93845L106.046 3.04574V0.787693H117.651V3.04574L113.345 4.09599L106.204 12.6556L114.816 23.7882L119.227 24.786V27.044H104.523V24.786L107.884 24.2609L101.74 16.384L95.4385 23.9458L98.8518 24.786V27.044H87.5091V24.786L91.7626 23.8408L99.9546 14.0734L92.1827 4.04348L87.8767 3.04574Z" stroke="black"/>
<path d="M121.481 20.5325C121.481 14.476 126.855 11.4478 137.602 11.4478V9.60982C137.602 6.56409 137.165 4.63862 136.29 3.83343C135.449 2.99322 134.119 2.57312 132.299 2.57312L126.155 7.82439C125.315 7.29926 124.597 6.56409 124.002 5.61886C123.442 4.63862 123.144 3.60587 123.109 2.52061C124.579 1.71542 126.19 1.10277 127.94 0.682665C129.691 0.227555 131.423 0 133.139 0C140.316 0 143.904 3.01073 143.904 9.03218V23.6307H148V25.3636C147.195 26.1338 146.302 26.729 145.322 27.1491C144.342 27.6042 143.379 27.8317 142.434 27.8317C140.368 27.8317 138.845 26.939 137.865 25.1536C135.519 26.939 132.876 27.8317 129.936 27.8317C127.625 27.8317 125.63 27.2191 123.949 25.9938C122.304 24.7685 121.481 22.948 121.481 20.5325ZM128.098 20.3224C128.098 21.6177 128.518 22.5805 129.358 23.2106C130.233 23.8408 131.336 24.1558 132.666 24.1558C134.592 24.1558 136.237 23.5607 137.602 22.3704V14.1259C134.452 14.1259 132.071 14.7036 130.461 15.8588C128.885 16.9791 128.098 18.467 128.098 20.3224Z" stroke="black"/>
</svg>
